<?xml version="1.0" standalone="no"?>
<!DOCTYPE svg PUBLIC "-//W3C//DTD SVG 1.1//EN" "http://www.w3.org/Graphics/SVG/1.1/DTD/svg11.dtd" >
<svg xmlns="http://www.w3.org/2000/svg">
<metadata></metadata>
<defs>
<font id="fibel_nordregular" horiz-adv-x="869" >
<font-face units-per-em="2048" ascent="1638" descent="-410" />
<missing-glyph horiz-adv-x="542" />
<glyph horiz-adv-x="0" />
<glyph unicode="&#xd;" horiz-adv-x="2048" />
<glyph unicode=" "  horiz-adv-x="542" />
<glyph unicode="&#x09;" horiz-adv-x="542" />
<glyph unicode="&#xa0;" horiz-adv-x="542" />
<glyph unicode="!" horiz-adv-x="265" d="M45 0v174h174v-174h-174zM45 774v516h174v-516l-44 -516h-87z" />
<glyph unicode="&#x22;" horiz-adv-x="365" d="M49 1152v138h106v-138l-27 -138h-53zM210 1152v138h106v-138l-26 -138h-53z" />
<glyph unicode="#" horiz-adv-x="712" d="M32 484v129h130v129h-130v129h130v130h129v-130h129v130h129v-130h130v-129h-130v-129h130v-129h-130v-130h-129v130h-129v-130h-129v130h-130zM291 613h129v129h-129v-129z" />
<glyph unicode="$" horiz-adv-x="790" d="M17 476h129q0 -15 14 -30.5t38.5 -30t58.5 -25.5t74 -15v212q-126 15 -219 55q-95 41 -95 172q0 43 22.5 82t64 70t99 51.5t128.5 27.5v245h129v-245q72 -7 130 -28t99 -51.5t63 -68.5t22 -80h-129q0 15 -14 30t-39 28t-59 23.5t-73 16.5v-212q122 -15 218 -56t96 -171 q0 -43 -22 -81.5t-62.5 -69t-98.5 -51.5t-131 -29v-245h-129v245q-73 8 -131.5 29t-99 51.5t-62 69t-21.5 81.5zM146 814q0 -25 15.5 -41.5t41 -27.5t59 -17.5t69.5 -10.5v198q-41 -6 -74.5 -17t-58.5 -24.5t-38.5 -29t-13.5 -30.5zM460 375q38 4 72 15t59 25t39.5 30 t14.5 31q0 24 -15.5 40t-41 27t-59 18t-69.5 12v-198z" />
<glyph unicode="%" horiz-adv-x="979" d="M43 1049q0 49 19 93t51.5 77t76.5 52t94 19q49 0 92.5 -19t76.5 -52t52 -77t19 -93q0 -50 -19 -93.5t-52 -76t-76.5 -51.5t-92.5 -19q-50 0 -94 19t-76.5 51.5t-51.5 76t-19 93.5zM57 0l719 1290h147l-719 -1290h-147zM172 1049q0 -23 8.5 -43t23.5 -35t35.5 -24t44.5 -9 q22 0 42 8.5t35.5 23.5t24.5 35t9 44q0 47 -32 79q-33 33 -79 33q-24 0 -44.5 -9t-35.5 -24.5t-23.5 -36t-8.5 -42.5zM455 241q0 48 18.5 91.5t51 76.5t76 52.5t94.5 19.5t95 -19.5t76.5 -52.5t51 -76.5t18.5 -91.5q0 -51 -19 -95t-52 -76.5t-77 -51t-93 -18.5 q-50 0 -93.5 19t-76 51.5t-51.5 76.5t-19 94zM584 241q0 -24 9.5 -44.5t25 -35.5t35.5 -23.5t41 -8.5q22 0 42 8t35.5 23t25 35.5t9.5 45.5q0 47 -32 79q-35 32 -80 32q-23 0 -43 -8.5t-35 -23.5t-24 -35t-9 -44z" />
<glyph unicode="&#x26;" horiz-adv-x="989" d="M34 334q0 70 18.5 129t50 109t72.5 92.5t86 80.5q-35 60 -60 130.5t-25 142.5q0 55 18 104.5t51 86.5t80.5 59t106.5 22q55 0 98 -22.5t71.5 -57.5t43.5 -76.5t15 -80.5q0 -50 -20 -96.5t-52.5 -89t-73 -80t-80.5 -68.5l-2 -2l317 -448q41 53 44 113h129 q-5 -125 -96 -221q27 -32 94 -32h35h-35h35v-129h-7q-29 0 -58 1t-57.5 8.5t-56 24.5t-51.5 48q-139 -82 -302 -82q-90 0 -162 22.5t-122.5 65.5t-77.5 105t-27 141zM162 335q0 -106 66.5 -156t194.5 -50q24 0 53 4t59 11.5t60 18t55 24.5l-318 449q-34 -30 -65 -63t-54 -70 t-37 -79t-14 -89zM305 1012q0 -21 4.5 -45t12.5 -49t18.5 -48.5t22.5 -43.5q24 19 53 43t54.5 52t43 59.5t17.5 64.5q0 16 -5 36t-16.5 38t-30.5 30t-47 12h-8q-62 -5 -90.5 -46.5t-28.5 -102.5zM917 0h38h-38z" />
<glyph unicode="'" horiz-adv-x="192" d="M43 1152v138h106v-138l-27 -138h-53z" />
<glyph unicode="(" horiz-adv-x="352" d="M31 644q0 108 10.5 210t29.5 193t46 169t60 138h153q-40 -49 -71.5 -124.5t-53.5 -168.5t-33.5 -199.5t-11.5 -217.5q0 -110 10.5 -214.5t31.5 -196.5t52.5 -168t73.5 -129h-152q-33 59 -60 136t-46 167.5t-29 193t-10 211.5z" />
<glyph unicode=")" horiz-adv-x="352" d="M22 1354h152q37 -65 64.5 -144t46 -169.5t27.5 -190.5t9 -206q0 -217 -36 -393.5t-109 -314.5h-152q42 55 73.5 131t52.5 167.5t31.5 195t10.5 214.5t-11.5 216.5t-33.5 198.5t-53.5 168.5t-71.5 126.5z" />
<glyph unicode="*" horiz-adv-x="567" d="M25 959q0 12 4 25.5t13 25t23.5 18.5t35.5 7q18 0 35.5 2.5t31.5 6t22.5 9t8.5 11.5q0 5 -9 10t-23 9.5t-31.5 7.5t-34.5 3q-37 0 -56.5 21.5t-19.5 53.5q0 6 2 18.5t10 25t24 22.5t43 10q15 0 31.5 -7.5t30.5 -30.5q5 -14 16 -27t22.5 -22.5t21.5 -15.5t13 -6q1 -1 3 1 q1 2 2 5.5t1 11.5q0 12 -6.5 29.5t-14 34.5t-13.5 32t-6 22q0 13 5 26.5t14.5 25t24 19t33.5 7.5q12 0 26 -5t25.5 -15t19 -24.5t7.5 -33.5q0 -14 -12 -36q-5 -7 -10 -18t-9 -23t-6.5 -23t-2.5 -18q0 -12 2.5 -15t3.5 -3q5 0 14.5 5.5t20 15t20.5 22.5t18 28q11 23 29 30.5 t32 7.5q22 0 37 -7.5t24 -18t13 -22t5 -18.5q1 -4 1 -11q0 -11 -4 -24t-13 -24t-23.5 -18.5t-35.5 -7.5q-41 0 -69.5 -11t-28.5 -19q0 -11 18.5 -16.5t42 -8.5t45.5 -5t30 -7q17 -11 27.5 -29.5t10.5 -36.5q0 -17 -6.5 -31.5t-17.5 -25t-24.5 -16t-28.5 -5.5t-25 3t-18 11 t-17.5 21.5t-23.5 33.5q-31 36 -49 40h-6q-2 -2 -3 -7.5t-1 -10.5q0 -14 6 -31t13.5 -34t14 -31.5t6.5 -21.5q0 -14 -5.5 -28t-15.5 -25t-24.5 -17.5t-32.5 -6.5q-26 0 -41.5 10.5t-23.5 23.5t-10 25.5t-2 17.5q0 14 11.5 34t16.5 35q5 16 8.5 28t3.5 21q0 6 -1.5 12t-2.5 6 h-6q-12 -3 -33.5 -22.5t-35.5 -47.5q-16 -26 -31.5 -32.5t-32.5 -6.5q-10 0 -23.5 4t-25.5 13t-20 23.5t-8 35.5z" />
<glyph unicode="+" horiz-adv-x="667" d="M10 613v129h259v259h129v-259h259v-129h-259v-259h-129v259h-259z" />
<glyph unicode="," horiz-adv-x="243" d="M34 0v174h174q0 -74 -3.5 -127t-13.5 -93t-28 -69.5t-47 -56.5l-43 1q44 82 44 151v10t-1 10h-82z" />
<glyph unicode="-" horiz-adv-x="754" d="M53 613v129h647v-129h-647z" />
<glyph unicode="." horiz-adv-x="282" d="M53 0v174h174v-174h-174z" />
<glyph unicode="/" horiz-adv-x="874" d="M4 0l719 1290h147l-719 -1290h-147z" />
<glyph unicode="0" horiz-adv-x="787" d="M37 645q0 135 27.5 252.5t75.5 205t113 137.5t141 50q75 0 140 -50t113 -137.5t75.5 -205t27.5 -252.5q0 -136 -27.5 -253.5t-75.5 -204.5t-113 -137t-140 -50t-140.5 50t-113.5 137t-75.5 205t-27.5 253zM166 645q0 -101 18.5 -194t50 -164.5t72.5 -114.5t87 -43 q45 0 86 43t72.5 114.5t50 164.5t18.5 194q0 225 -78 381q-68 135 -149 135q-46 0 -87 -43t-72.5 -114.5t-50 -165t-18.5 -193.5z" />
<glyph unicode="1" horiz-adv-x="411" d="M4 900v185l199 205h154v-1290h-129v1131z" />
<glyph unicode="2" horiz-adv-x="828" d="M41 0v65q0 226 114 330q57 52 119 96.5t129 82.5q102 58 183 127q83 71 83 206q0 52 -19.5 98t-53.5 80.5t-79 55t-97 20.5q-53 0 -98.5 -20.5t-79.5 -55t-53 -81t-19 -97.5h-129q0 78 30 147.5t81.5 122t120.5 83t147 30.5q77 0 145.5 -30.5t120.5 -82.5t82 -121.5 t30 -148.5q0 -192 -103 -283q-46 -41 -97.5 -76t-105.5 -69.5t-108 -69.5t-104 -75q-87 -70 -106 -205h624v-129h-757z" />
<glyph unicode="3" horiz-adv-x="830" d="M33 359h129q0 -48 19.5 -90t53.5 -73.5t79.5 -50t97.5 -18.5q50 0 95.5 18t79.5 49.5t54 74t20 90.5t-20 90.5t-54 74t-79 50t-96 18.5v127q51 0 96.5 17.5t79 47.5t53.5 70.5t20 86.5q0 45 -19.5 85.5t-53.5 71t-79.5 48t-96.5 17.5q-53 0 -98.5 -18t-79.5 -48 t-53 -70.5t-19 -85.5h-129q0 71 29.5 134.5t81 111t120.5 75.5t148 28q77 0 146 -28t120.5 -75.5t81.5 -111t30 -134.5q0 -174 -162 -287q82 -54 122 -131t40 -164q0 -73 -30 -138.5t-81.5 -114.5t-120 -77.5t-146.5 -28.5t-146.5 28.5t-120.5 77t-82 114t-30 139.5z" />
<glyph unicode="4" horiz-adv-x="789" d="M8 245v143l465 902h137v-916h155v-129h-155v-245h-129v245h-473zM146 374h335v651z" />
<glyph unicode="5" horiz-adv-x="833" d="M44 263h143q39 -68 96.5 -101t123.5 -33q54 0 102.5 24.5t85 66t57.5 97t21 118.5q0 62 -21 117.5t-57 97.5t-84.5 67t-103.5 25q-66 0 -124 -34t-96 -100h-143v682h758v-129h-629v-374q106 84 234 84q82 0 154 -35t125.5 -95t84.5 -139t31 -167q0 -89 -31 -168t-85 -138 t-126 -94t-153 -35q-57 0 -111.5 17t-102 50.5t-86 82.5t-63.5 113z" />
<glyph unicode="6" horiz-adv-x="842" d="M40 590q0 64 5.5 140.5t21 154.5t43.5 151t72.5 129.5t107.5 90.5t149 34q59 0 114 -18.5t103 -54t86.5 -88.5t63.5 -122h-140q-41 78 -99.5 116t-127.5 38q-71 0 -118 -37t-76.5 -94.5t-44.5 -128t-23 -137.5q109 107 249 107q78 0 146.5 -34.5t120.5 -93.5t82 -138.5 t30 -169.5t-30 -169t-82 -138.5t-120.5 -93.5t-146.5 -34q-72 0 -137 30t-116 83t-84 125t-40 157q-2 31 -5.5 81.5t-3.5 113.5zM176 435q0 -129 77 -220q74 -86 173 -86q51 0 96.5 24.5t79.5 66.5t54 97.5t20 117.5q0 61 -20 117t-54 98t-79.5 67t-96.5 25q-52 0 -97.5 -25 t-79.5 -67t-53.5 -98t-19.5 -117z" />
<glyph unicode="7" horiz-adv-x="787" d="M14 1161v129h757v-132q-96 -94 -165.5 -205.5t-115.5 -242.5h132v-129h-170q-59 -245 -62 -581h-129q2 168 16.5 312t42.5 269h-143v129h178h-1l1 1l2 4q80 256 242 446h-585z" />
<glyph unicode="8" horiz-adv-x="837" d="M40 355q0 88 40 161.5t121 128.5q-80 50 -120.5 127t-40.5 163q0 73 30 137.5t81.5 113t120.5 76.5t147 28q77 0 145.5 -28t120.5 -76t82 -113t30 -138q0 -88 -40.5 -162t-120.5 -128q81 -59 121 -129t40 -161q0 -74 -30 -138.5t-82 -112.5t-120.5 -76t-145.5 -28 q-78 0 -147 28t-120.5 76.5t-81.5 113t-30 137.5zM169 355q0 -46 19.5 -87t53.5 -72t79.5 -49t97.5 -18q51 0 96 18t79 48.5t54 71.5t20 88q0 90 -71 158q-74 68 -178 68q-53 0 -98.5 -18t-79 -49t-53 -72t-19.5 -87zM169 935q0 -46 19 -87t52.5 -71.5t79 -48.5t99.5 -18 q52 0 97.5 18t79 48.5t53 71.5t19.5 87q0 93 -71 158q-74 68 -178 68q-51 0 -96.5 -17.5t-79.5 -48.5t-54 -72t-20 -88z" />
<glyph unicode="9" horiz-adv-x="841" d="M36 283h139q16 -36 41 -64.5t55 -48.5t63.5 -30.5t68.5 -10.5q71 0 118 37.5t76.5 96t44.5 128.5t22 135q-107 -107 -249 -107q-77 0 -145.5 34t-120 93t-82 138.5t-30.5 170.5q0 88 29.5 167t80.5 138.5t120 94.5t148 35q73 0 138.5 -30.5t116 -83.5t83 -125t39.5 -156 q2 -32 6 -82t4 -113q0 -64 -5.5 -141t-21.5 -154.5t-43.5 -150.5t-72 -129.5t-107.5 -90.5t-149 -34q-60 0 -117 19.5t-105.5 56.5t-86 89t-58.5 118zM166 855q0 -63 19.5 -118.5t53 -97.5t79 -66.5t97.5 -24.5q50 0 95.5 24t80 65.5t54.5 97.5t20 120q0 128 -77 220 q-74 86 -173 86q-52 0 -97.5 -25t-79 -67t-53 -97.5t-19.5 -116.5z" />
<glyph unicode=":" horiz-adv-x="248" d="M53 0v174h174v-174h-174zM53 420v174h174v-174h-174z" />
<glyph unicode=";" horiz-adv-x="249" d="M34 0v174h174q0 -74 -3.5 -127t-13.5 -93t-28 -69.5t-47 -56.5l-43 1q44 82 44 151v10t-1 10h-82zM34 420v174h174v-174h-174z" />
<glyph unicode="&#x3c;" horiz-adv-x="681" d="M1 677l644 404v-151l-402 -253l402 -251v-152z" />
<glyph unicode="=" horiz-adv-x="726" d="M53 484v129h647v-129h-647zM53 742v129h647v-129h-647z" />
<glyph unicode="&#x3e;" horiz-adv-x="698" d="M53 274v152l402 251l-402 253v151l644 -404z" />
<glyph unicode="?" horiz-adv-x="620" d="M34 571q0 153 83 202.5t182 77.5q64 18 117.5 46.5t53.5 109.5q0 64 -45 109q-44 45 -108 45t-109 -45t-45 -109h-129q0 117 83 200t200 83q115 0 200 -83q82 -82 82 -200q0 -153 -83 -202.5t-182 -77.5q-64 -18 -117.5 -46.5t-53.5 -109.5q0 -64 45 -109q46 -45 109 -45 t108 45t45 109h129q0 -117 -82 -200q-84 -82 -200 -82q-118 0 -200 82q-83 84 -83 200zM233 -1v174h174v-174h-174z" />
<glyph unicode="@" horiz-adv-x="1096" d="M36 514q0 212 151 363t363 151q104 0 197.5 -40.5t163.5 -110t111 -163.5t41 -200q0 -61 -18.5 -114t-50 -92.5t-74 -62t-90.5 -22.5q-95 0 -156 73q-65 -65 -153 -65q-49 0 -92 22t-75.5 59.5t-51 88t-18.5 107.5q0 58 18.5 108.5t51 88t75.5 59t92 21.5q60 0 108 -30 v34h129v-281v-80q0 -32 18.5 -54t54.5 -22h6q19 1 36.5 14t31 35t21.5 51t8 62q0 78 -30 148t-82.5 122.5t-122.5 83.5t-149 31q-80 0 -150 -31t-122.5 -83.5t-82.5 -122.5t-30 -148t30 -148t82.5 -122.5t122.5 -83.5t150 -31q62 0 121.5 20t105.5 54l76 -104 q-72 -51 -148.5 -75t-154.5 -24q-212 0 -363 151t-151 363zM413 508q0 -30 8.5 -57t23.5 -47.5t34.5 -32t41.5 -11.5t41 11.5t34 31t23.5 45.5t9.5 55v10q-1 30 -10 56.5t-24 45.5t-34 30t-40 11q-23 0 -42.5 -12t-34 -32t-23 -47t-8.5 -57z" />
<glyph unicode="A" d="M22 0l345 1290h134l346 -1290h-134l-63 236h-432l-63 -236h-133zM253 365h363l-182 676z" />
<glyph unicode="B" horiz-adv-x="854" d="M55 0v1290h402q73 0 137.5 -28t113 -76.5t76.5 -113t28 -137.5q0 -86 -38 -162.5t-113 -127.5q75 -52 113 -128.5t38 -161.5q0 -73 -28 -137.5t-76.5 -113t-113 -76.5t-137.5 -28h-402zM184 129h273q46 0 87.5 17.5t72 48.5t48.5 72t18 88q0 46 -18.5 87.5t-49.5 72 t-72 48.5t-86 18h-273v-452zM184 710h273q46 0 87.5 18t72 48.5t48.5 71.5t18 87t-18 87.5t-48.5 72t-72 48.5t-87.5 18h-273v-451z" />
<glyph unicode="C" horiz-adv-x="788" d="M40 645q0 177 26.5 299.5t76 199.5t119.5 111.5t157 34.5q124 0 209.5 -72t126.5 -216h-135q-32 80 -79 119t-122 39q-60 0 -107 -27.5t-78.5 -89t-48 -159.5t-16.5 -239q0 -143 16.5 -241.5t48.5 -159t78.5 -87.5t106.5 -27q74 0 121 38.5t80 119.5h135 q-42 -146 -126.5 -217t-209.5 -71q-85 0 -155 33.5t-119.5 109t-77 199t-27.5 303.5z" />
<glyph unicode="D" horiz-adv-x="850" d="M53 0v1290h379q85 0 155 -34t119.5 -110.5t76.5 -199.5t27 -301q0 -181 -27.5 -304.5t-77.5 -199t-119.5 -108.5t-153.5 -33h-379zM182 129h250q58 0 104.5 27t78.5 87.5t49 159t17 242.5q0 142 -16.5 240t-48.5 159t-78.5 88.5t-105.5 27.5l-250 1v-517v-515z" />
<glyph unicode="E" horiz-adv-x="829" d="M53 0v1290h757v-129h-628v-451h628v-129h-628v-452h628v-129h-757z" />
<glyph unicode="F" horiz-adv-x="813" d="M55 0v1290h757v-129h-628v-451h628v-129h-628v-581h-129z" />
<glyph unicode="G" horiz-adv-x="841" d="M41 645q0 177 26.5 299.5t76 199.5t119.5 111.5t157 34.5q124 0 209.5 -72t126.5 -216h-135q-32 80 -79 119t-122 39q-60 0 -107 -27.5t-78.5 -89t-48 -159.5t-16.5 -239q0 -143 16.5 -241.5t48.5 -159t78.5 -87.5t106.5 -27q124 0 182.5 114.5t65.5 336.5h-248v129h378 v-710h-130v112q-91 -112 -248 -112q-85 0 -155 33.5t-119.5 109t-77 199t-27.5 303.5z" />
<glyph unicode="H" horiz-adv-x="868" d="M55 0v1290h129v-580h499v580h129v-1290h-129v581h-499v-581h-129z" />
<glyph unicode="I" horiz-adv-x="240" d="M54 0v1290h129v-1290h-129z" />
<glyph unicode="J" horiz-adv-x="633" d="M3 290h129q0 -33 12.5 -62.5t34.5 -51.5t51.5 -34.5t62.5 -12.5t62 12.5t50.5 34.5t34.5 51.5t13 62.5v1000h129v-1000q0 -60 -23 -112.5t-62.5 -92t-92 -62.5t-111.5 -23q-60 0 -112.5 23t-92 62.5t-62.5 92.5t-23 112z" />
<glyph unicode="K" horiz-adv-x="860" d="M54 0v1290h129v-543l471 543h171l-560 -645l560 -645h-171l-471 543v-543h-129z" />
<glyph unicode="L" horiz-adv-x="812" d="M55 0v1290h129v-1161h628v-129h-757z" />
<glyph unicode="M" horiz-adv-x="1123" d="M54 0v1290h133l373 -1036l376 1036h133v-1290h-129v924l-335 -924h-90l-332 921v-921h-129z" />
<glyph unicode="N" d="M55 0v1290h144q118 -244 239.5 -501.5t244.5 -514.5v1016h129v-1286l2 -4h-131h-12q-121 254 -243.5 513t-243.5 510v-1023h-129z" />
<glyph unicode="O" horiz-adv-x="839" d="M41 645q0 177 26.5 299.5t76 199.5t119.5 111.5t157 34.5q85 0 155 -34t119.5 -110.5t76.5 -199.5t27 -301q0 -181 -27.5 -304.5t-77.5 -199t-119.5 -108.5t-153.5 -33q-85 0 -155 33.5t-119.5 109t-77 199t-27.5 303.5zM170 645q0 -143 16.5 -241.5t48.5 -159 t78.5 -87.5t106.5 -27q58 0 104.5 26.5t78.5 87.5t49 159.5t17 241.5q0 160 -22 263t-59 162q-59 90 -168 90q-60 0 -107 -27.5t-78.5 -89t-48 -159.5t-16.5 -239z" />
<glyph unicode="P" horiz-adv-x="819" d="M55 0v1290h402q73 0 137.5 -28t113 -76.5t76.5 -113t28 -137.5q0 -72 -28 -136.5t-76 -113t-113 -76.5t-138 -28h-273v-581h-129zM184 710h273q46 0 87.5 18t72 48.5t48.5 71.5t18 87t-18 87.5t-48.5 72t-72 48.5t-87.5 18h-273v-451z" />
<glyph unicode="Q" horiz-adv-x="888" d="M42 645q0 177 26.5 299.5t76 199.5t119.5 111.5t157 34.5q85 0 155 -34t119.5 -110.5t76.5 -199.5t27 -301q0 -310 -86 -468l141 -177h-149l-65 81q-87 -81 -219 -81q-85 0 -155 33.5t-119.5 109t-77 199t-27.5 303.5zM171 645q0 -143 16.5 -241.5t48.5 -159t78.5 -87.5 t106.5 -27q82 0 138 53l-232 289h150l146 -183q47 127 47 356q0 142 -16.5 240t-48.5 159t-78.5 88.5t-105.5 27.5q-60 0 -107 -27.5t-78.5 -89t-48 -159.5t-16.5 -239z" />
<glyph unicode="R" horiz-adv-x="856" d="M55 0v1290h402q73 0 137.5 -28t113 -76.5t76.5 -113t28 -137.5q0 -72 -28 -136.5t-76 -113t-113 -76.5t-138 -28h-188l551 -581h-177l-459 484v-484h-129zM184 710h273q46 0 87.5 18t72 48.5t48.5 71.5t18 87t-18 87.5t-48.5 72t-72 48.5t-87.5 18h-273v-451z" />
<glyph unicode="S" horiz-adv-x="832" d="M38 355h129q0 -46 19.5 -87t53.5 -72t79.5 -49t97.5 -18q51 0 96 18t79 48.5t54 71.5t20 88q0 120 -83 161q-42 20 -87 37t-95 30q-69 17 -131 39.5t-119 54.5q-113 62 -113 258q0 73 30 137.5t81.5 113t120.5 76.5t147 28q77 0 145.5 -28t120.5 -76t82 -113t30 -138 h-129q0 48 -20 89t-54 71.5t-79.5 48t-95.5 17.5q-51 0 -96.5 -17.5t-79.5 -48.5t-54 -72t-20 -88q0 -121 83 -162q84 -41 182 -65q136 -35 249 -96q114 -62 114 -257q0 -74 -30 -138.5t-82 -112.5t-120.5 -76t-145.5 -28q-78 0 -147 28t-120.5 76.5t-81.5 113t-30 137.5z " />
<glyph unicode="T" horiz-adv-x="785" d="M14 1161v129h757v-129h-314v-1161h-129v1161h-314z" />
<glyph unicode="U" horiz-adv-x="807" d="M50 354v936h129v-936q0 -46 18 -87t48.5 -71.5t71.5 -48.5t87 -18t87 18t71.5 48.5t48 71.5t17.5 87v936h129v-936q0 -74 -28.5 -138.5t-77 -112.5t-112.5 -75.5t-135 -27.5q-72 0 -136.5 28t-113 76.5t-76.5 113t-28 136.5z" />
<glyph unicode="V" d="M22 1290h133l279 -1041l279 1041h134l-346 -1290h-134z" />
<glyph unicode="W" horiz-adv-x="1217" d="M36 1290h131l188 -956l188 956h131l188 -956l188 956h131l-254 -1290h-131l-188 956l-187 -956h-132z" />
<glyph unicode="X" horiz-adv-x="856" d="M42 0l314 645l-314 645h143l243 -498l242 498h144l-314 -645l314 -645h-144l-242 498l-243 -498h-143z" />
<glyph unicode="Y" horiz-adv-x="784" d="M17 1290h142l233 -494l233 494h142l-310 -659v-631h-130v631z" />
<glyph unicode="Z" horiz-adv-x="821" d="M32 0v134l616 1027h-616v129h757v-143l-610 -1018h610v-129h-757z" />
<glyph unicode="[" horiz-adv-x="305" d="M53 -64v1418h224v-129h-95v-1160h95v-129h-224z" />
<glyph unicode="\" horiz-adv-x="874" d="M4 1290h147l719 -1290h-147z" />
<glyph unicode="]" horiz-adv-x="307" d="M28 -64v129h95v1160h-95v129h224v-1418h-224z" />
<glyph unicode="^" horiz-adv-x="699" d="M17 324l332 821l333 -821h-139l-194 477l-193 -477h-139z" />
<glyph unicode="_" horiz-adv-x="1090" d="M55 -200h980v-100h-980v100z" />
<glyph unicode="`" horiz-adv-x="272" d="M11 1160h159l73 -259h-89z" />
<glyph unicode="a" horiz-adv-x="850" d="M39 403q0 94 26.5 169t75.5 127t119 79.5t158 27.5q151 0 249 -81v81h129v-806h-129v82q-97 -82 -249 -82q-87 0 -157 27t-119.5 79t-76 127t-26.5 170zM168 403q0 -137 63 -205.5t187 -68.5q121 0 185 68t64 206t-64 206q-65 68 -185 68q-125 0 -187.5 -69t-62.5 -205z " />
<glyph unicode="b" horiz-adv-x="820" d="M53 383.5v19.5v19t1 13l-1 855h129v-565q97 81 250 81q88 0 158 -27.5t119 -79.5t75 -127t26 -169q0 -95 -26.5 -170t-76 -127t-119.5 -79t-156 -27q-153 0 -250 81l1 -81h-129v370q-1 5 -1 13.5zM182 384q5 -126 67.5 -190.5t182.5 -64.5q121 0 185 68t64 206 q0 137 -63 205.5t-186 68.5q-121 0 -183 -64.5t-67 -191.5v-37z" />
<glyph unicode="c" horiz-adv-x="791" d="M38 403q0 94 26.5 169t75.5 127t119 79.5t158 27.5q123 0 212 -54t132 -158h-146q-30 42 -81 62.5t-117 20.5q-125 0 -187.5 -69t-62.5 -205q0 -137 63 -205.5t187 -68.5q66 0 117 21t81 63h146q-45 -106 -133.5 -159.5t-210.5 -53.5q-87 0 -157 27t-119.5 79t-76 127 t-26.5 170z" />
<glyph unicode="d" horiz-adv-x="821" d="M10 403q0 94 26.5 169t75.5 127t119 79.5t158 27.5q153 0 250 -82v566h128v-1290h-127v83q-101 -83 -251 -83q-87 0 -157 27t-119.5 79t-76 127t-26.5 170zM139 403q0 -137 63 -205.5t187 -68.5q121 0 185 68t64 206t-64 206q-65 68 -185 68q-125 0 -187.5 -69 t-62.5 -205z" />
<glyph unicode="e" horiz-adv-x="830" d="M39 403q0 94 26.5 169t75.5 127t119 79.5t158 27.5t158 -27.5t119 -79.5t75 -127t26 -169q0 -34 -3 -64h-621q14 -106 76.5 -158t169.5 -52q66 0 117 21t81 63h146q-45 -106 -133.5 -159.5t-210.5 -53.5q-87 0 -157 27t-119.5 79t-76 127t-26.5 170zM172 468h491 q-14 103 -75.5 156t-169.5 53q-109 0 -170.5 -53t-75.5 -156z" />
<glyph unicode="f" horiz-adv-x="475" d="M17 677v129h107v159q0 158 85.5 241.5t252.5 83.5v-129q-110 0 -159.5 -44.5t-49.5 -151.5v-159h122v-129h-122v-677h-129v677h-107z" />
<glyph unicode="g" horiz-adv-x="844" d="M38 403q0 94 26.5 169t75.5 127t119 79.5t158 27.5q150 0 249 -81v81h128v-403l1 -482q0 -94 -26.5 -169t-75.5 -127t-119 -79.5t-157 -27.5q-75 0 -137.5 20.5t-110.5 59.5t-79.5 95t-43.5 128h132q22 -89 81 -131.5t158 -42.5q123 0 186 68.5t63 205.5v161 q-97 -82 -249 -82q-87 0 -157 27t-119.5 79t-76 127t-26.5 170zM167 403q0 -137 63 -205.5t187 -68.5q118 0 182 64.5t67 198.5v23q-3 131 -66 196.5t-183 65.5q-125 0 -187.5 -69t-62.5 -205z" />
<glyph unicode="h" horiz-adv-x="823" d="M53 0v1290h128l1 -565q97 81 249 81q88 0 158.5 -28t119.5 -80t75 -126.5t26 -168.5v-403h-129v403q0 137 -63.5 205.5t-186.5 68.5q-74 0 -122.5 -24.5t-76.5 -63.5t-39 -88t-11 -98v-403h-129z" />
<glyph unicode="i" horiz-adv-x="218" d="M43 0v806h129v-806h-129zM43 1039q0 62 65 62q64 0 64 -62t-64 -62q-65 0 -65 62z" />
<glyph unicode="j" horiz-adv-x="379" d="M1 -354q54 0 93.5 10.5t65 34t37.5 60.5t12 91v964h130v-964q0 -158 -87 -241.5t-251 -83.5v129zM210 1039q0 62 64 62q65 0 65 -62t-65 -62q-64 0 -64 62z" />
<glyph unicode="k" horiz-adv-x="776" d="M53 0v1290h129v-752l300 268h194l-393 -350l491 -456h-189l-403 374v-374h-129z" />
<glyph unicode="l" horiz-adv-x="283" d="M50 1290h128l1 -1079q0 1 1 1q0 -45 19.5 -64t64.5 -19h3v-129h-4q-49 1 -88.5 16t-67 42t-42 66t-14.5 87z" />
<glyph unicode="m" horiz-adv-x="1147" d="M53 0v806h129v-50q73 50 164 50q136 0 229 -110q92 110 229 110q60 0 113.5 -23.5t93 -63t63 -93t23.5 -113.5v-513h-129v513q0 33 -13 62.5t-35 52t-52 36t-64 13.5t-63.5 -13t-52 -35.5t-35.5 -52t-13 -63.5v-513h-129v513q0 33 -13 62.5t-35.5 52t-52.5 36t-64 13.5 t-63.5 -13t-52 -35.5t-35.5 -52t-13 -63.5v-513h-129z" />
<glyph unicode="n" horiz-adv-x="856" d="M53 0v806h128l1 -81q97 81 249 81q88 0 158.5 -28t119.5 -80t75 -126.5t26 -168.5v-403h-129v403q0 137 -63.5 205.5t-186.5 68.5q-74 0 -122.5 -24.5t-76.5 -63.5t-39 -88t-11 -98v-403h-129z" />
<glyph unicode="o" horiz-adv-x="835" d="M39 403q0 94 26.5 169t75.5 127t119 79.5t158 27.5t158 -27.5t119 -79.5t75 -127t26 -169q0 -95 -26.5 -170t-76 -127t-119.5 -79t-156 -27q-87 0 -157 27t-119.5 79t-76 127t-26.5 170zM168 403q0 -137 63 -205.5t187 -68.5q121 0 185 68t64 206t-64 206q-65 68 -185 68 q-125 0 -187.5 -69t-62.5 -205z" />
<glyph unicode="p" horiz-adv-x="819" d="M53 385.5v17.5v19t1 13v371h128v-81q97 81 250 81q88 0 158 -27.5t119 -79.5t75 -127t26 -169q0 -95 -26.5 -170t-76 -127t-119.5 -79t-156 -27q-153 0 -250 82v-565h-129l1 856q-1 5 -1 12.5zM182 388q5 -134 68.5 -196.5t181.5 -62.5q121 0 185 68t64 206 q0 137 -63 205.5t-186 68.5q-241 0 -250 -258v-31z" />
<glyph unicode="q" horiz-adv-x="820" d="M9 403q0 94 26.5 169t75.5 127t119 79.5t158 27.5q150 0 249 -81v81h128q0 -325 0.5 -644.5t0.5 -644.5h-128l-1 565q-97 -82 -249 -82q-87 0 -157 27t-119.5 79t-76 127t-26.5 170zM138 403q0 -137 63 -205.5t187 -68.5q115 0 179.5 62t69.5 197v31q-5 130 -68 194 t-181 64q-125 0 -187.5 -69t-62.5 -205z" />
<glyph unicode="r" horiz-adv-x="615" d="M53 0v806h128l1 -81q97 81 249 81q101 0 179 -36v-154q-64 61 -179 61q-74 0 -122.5 -24.5t-76.5 -63.5t-39 -88t-11 -98v-403h-129z" />
<glyph unicode="s" horiz-adv-x="833" d="M38 234h129q0 -20 21 -39t56 -33.5t80 -23.5t93 -9q46 0 90.5 9t79.5 23.5t57 33.5t22 39q0 30 -23 48t-59.5 29t-82.5 17t-91 11q-141 15 -256 51q-116 36 -116 182q0 50 29.5 92.5t80.5 74t120 49.5t149 18t149 -18t120 -49t80 -73t29 -91h-129q0 19 -21 37t-55.5 32.5 t-79.5 23.5t-93 9t-93.5 -9t-80 -24t-55.5 -34t-21 -38q0 -30 23 -48.5t59.5 -29.5t82 -16.5t91.5 -10.5q70 -8 133 -21t122 -31q117 -38 117 -181q0 -51 -29.5 -93.5t-81 -74t-120.5 -49t-147 -17.5q-80 0 -149 17.5t-120 49t-80.5 74.5t-29.5 93z" />
<glyph unicode="t" horiz-adv-x="478" d="M17 677v129h106v295h129v-295h123v-129h-123v-352q0 -107 49.5 -151.5t159.5 -44.5v-129q-168 0 -253 84t-85 241v352h-106z" />
<glyph unicode="u" horiz-adv-x="857" d="M46 403v403h129v-403q0 -137 63 -205.5t187 -68.5q72 0 120 23.5t76.5 62.5t40.5 88t12 100v403h129v-806h-128l-1 82q-97 -82 -249 -82q-87 0 -157 27t-119.5 79t-76 127t-26.5 170z" />
<glyph unicode="v" horiz-adv-x="826" d="M21 806h139l253 -609l253 609h139l-334 -806h-116z" />
<glyph unicode="w" horiz-adv-x="1230" d="M34 806h135l199 -599l191 599h113l190 -598l199 598h135l-268 -806h-135l-178 560l-178 -560h-135z" />
<glyph unicode="x" horiz-adv-x="870" d="M41 0l313 413l-297 393h161l217 -286l217 286h162l-298 -393l313 -413h-161l-233 307l-232 -307h-162z" />
<glyph unicode="y" horiz-adv-x="840" d="M42 806h139l256 -634l256 634h139l-423 -1046q-63 -121 -154 -181.5t-197 -60.5v129q72 0 132.5 43.5t102.5 125.5l75 184z" />
<glyph unicode="z" horiz-adv-x="861" d="M52 0v131l573 546h-573v129h757v-130l-572 -547h572v-129h-757z" />
<glyph unicode="{" horiz-adv-x="410" d="M8 581v129q79 0 99 84q10 43 16 89t10 97q5 71 15.5 135t27.5 122q34 117 194 117v-129q-36 0 -56 -22t-30.5 -58t-14.5 -81.5t-7 -91.5q-3 -47 -7.5 -93.5t-13.5 -89t-24 -79.5t-39 -65q36 -41 53 -103.5t25 -133t12.5 -140.5t15.5 -125q16 -78 86 -78v-129 q-159 0 -194 116q-34 113 -43 258q-4 51 -10 96.5t-16 88.5q-20 86 -99 86z" />
<glyph unicode="|" horiz-adv-x="238" d="M53 0v1290h129v-1290h-129z" />
<glyph unicode="}" horiz-adv-x="411" d="M41 -64v129q68 0 85 78q8 38 12.5 83t8 92t8.5 94t14 90t24.5 80t39.5 63q-26 28 -41 65t-23.5 80t-12.5 89t-7 93q-3 48 -9 91.5t-14 82.5q-16 79 -85 79v129q158 0 193 -117q17 -58 28 -122t16 -135q3 -51 8.5 -97t16.5 -89q19 -84 100 -84v-129q-80 0 -100 -86 q-19 -83 -25 -185q-5 -72 -16 -136t-28 -122q-35 -116 -193 -116z" />
<glyph unicode="~" horiz-adv-x="897" d="M38 564q0 52 21 99.5t57.5 83t85 56.5t103.5 21q29 0 53.5 -6t46 -15.5t41 -22t39.5 -25.5q64 -45 107 -45q28 0 53.5 10.5t44.5 28t30 41t11 50.5h129q0 -53 -21.5 -100.5t-58 -82.5t-85.5 -55.5t-103 -20.5q-30 0 -54.5 5.5t-46 15t-40.5 22t-38 25.5q-33 23 -60.5 34 t-47.5 11q-29 0 -54 -10t-43.5 -28t-29.5 -41.5t-11 -50.5h-129z" />
<glyph unicode="&#xa1;" horiz-adv-x="265" d="M45 0v516l44 516h87l43 -516v-516h-174zM45 1116v174h174v-174h-174z" />
<glyph unicode="&#xa2;" horiz-adv-x="791" d="M38 620q0 94 26.5 169t75.5 127t119 79q34 14 72 20v275h129v-269q96 -8 169 -52q89 -54 132 -158h-146q-30 42 -81 62q-34 14 -74 19v-544q40 5 74 19q51 21 81 63h146q-45 -106 -134 -160q-72 -44 -167 -52v-218h-129v224q-38 7 -71 20q-70 27 -119.5 79t-76 127 t-26.5 170zM167 620q0 -137 63 -206q39 -42 101 -58v528q-63 -16 -102 -59q-62 -69 -62 -205z" />
<glyph unicode="&#xa3;" horiz-adv-x="1013" d="M27 167q0 67 49 124q63 72 196 31q-4 59 -14 126t-20 133h-123v129h101q-21 127 -16 189q10 178 104 284q96 107 258 115q102 3 178 -42q81 -49 110 -135l-121 -42q-16 42 -55 66q-46 27 -107 24q-107 -5 -166 -72q-64 -72 -73 -206q-3 -33 3 -80t15 -101h132v-129h-110 q13 -78 23.5 -155t10.5 -145v-8v-7q12 -6 25.5 -13t28.5 -13q78 -40 160 -75.5t148 -35.5q3 0 2 0h-2h1q32 0 58 42q35 54 35 135q0 7 0 4.5t0 2.5l128 2q1 -10 1 -9q0 -119 -55 -204q-64 -100 -164 -102q-7 0 -3 0t-1 0q-88 0 -182.5 40t-183.5 85l-15 8 q-44 -133 -186 -133q-66 0 -114 42q-28 22 -41 56q-15 31 -15 69zM156 167q0 -10 3 -17q3 -6 9 -12q10 -9 29 -9q48 0 66 61q-77 31 -90 16q-17 -19 -17 -39zM763 129h1h-1z" />
<glyph unicode="&#xa4;" horiz-adv-x="704" d="M26 405l80 80q-43 68 -43 151q0 82 43 151l-80 80l92 91l79 -80q68 43 151 43q82 0 151 -43l80 80l92 -91l-80 -80q43 -71 43 -151q-2 -83 -43 -151l80 -80l-92 -91l-80 80q-69 -43 -151 -43q-83 0 -151 43l-79 -80zM192 636q0 -66 46 -110q45 -47 110 -47t111 47 q46 46 46 110q0 65 -46 111t-111 46q-64 0 -110 -46q-46 -45 -46 -111z" />
<glyph unicode="&#xa5;" horiz-adv-x="784" d="M17 1290h142l233 -494l233 494h142l-241 -512h184l-1 -124l-242 -2l-10 -21v-111h253v-129h-253v-391h-130v391h-264v129h264v111l-10 20l-254 -2v129h195z" />
<glyph unicode="&#xa6;" horiz-adv-x="215" d="M53 0v484h129v-484h-129zM53 806v484h129v-484h-129z" />
<glyph unicode="&#xa7;" horiz-adv-x="559" d="M42 232h129q0 -43 30 -73t73 -30t73 30q30 31 30 73q0 19 -8 39q-7 16 -22 34l-228 227q-77 76 -75 178q2 90 71 179l-5 5q-32 31 -50 76q-18 40 -18 88q0 96 68 164t164 68t164 -68t68 -164h-129q0 41 -30 73q-30 30 -73 30t-73 -30t-30 -73q0 -20 8 -39q8 -21 22 -34 l227 -227q78 -79 75 -178q-2 -90 -70 -179l5 -5q31 -32 50 -76q18 -45 18 -88q0 -96 -68 -164t-164 -68t-164 68t-68 164zM173 707q-2 -45 38 -84l130 -130q32 46 34 90q0 46 -38 84l-130 130q-33 -47 -34 -90z" />
<glyph unicode="&#xa8;" horiz-adv-x="571" d="M50 980q0 66 65 66q66 0 66 -66q0 -65 -66 -65q-65 0 -65 65zM390 980q0 66 66 66q65 0 65 -66q0 -65 -65 -65q-66 0 -66 65z" />
<glyph unicode="&#xa9;" horiz-adv-x="1401" d="M46 645q0 133 51 250.5t138 205.5q189 189 457 189q267 0 455 -189q189 -189 189 -456t-189 -456q-188 -189 -455 -189q-268 0 -457 189q-87 87 -138 204.5t-51 251.5zM175 645q0 -213 152 -365q151 -151 365 -151q213 0 364 151q151 152 151 365q0 212 -151 365 q-151 151 -364 151q-214 0 -365 -151q-152 -152 -152 -365zM287 645q0 168 118 286q119 119 287 119q167 0 285 -119q41 -42 69 -91h-160q-81 81 -194 81q-116 0 -195 -81q-81 -81 -81 -195t81 -195q79 -81 195 -81q113 0 194 81h160q-28 -50 -69 -91q-119 -119 -285 -119 q-167 0 -287 119q-118 118 -118 286z" />
<glyph unicode="&#xaa;" horiz-adv-x="573" d="M43 1049q0 49 19 93t51.5 77t76.5 52t94 19q49 0 92 -19q8 -3 15 -7v24h134v-476h-134v22q-7 -3 -15 -6q-43 -19 -92 -19q-50 0 -94 19t-76.5 51.5t-51.5 76t-19 93.5zM172 1049q0 -23 8.5 -43t23.5 -35t35.5 -24t44.5 -9q22 0 42 8.5t35.5 23.5t24.5 35q3 6 5 13v62 q-7 27 -28 48q-33 33 -79 33q-24 0 -44.5 -9t-35.5 -24.5t-23.5 -36t-8.5 -42.5z" />
<glyph unicode="&#xab;" horiz-adv-x="1062" d="M1 677l644 404v-151l-402 -253l402 -251v-152zM366 677l644 404v-151l-402 -253l402 -251v-152z" />
<glyph unicode="&#xac;" horiz-adv-x="848" d="M108 613v129h647v-303h-174v174h-473z" />
<glyph unicode="&#xad;" horiz-adv-x="848" d="M108 533v209h647v-209h-647z" />
<glyph unicode="&#xae;" horiz-adv-x="1414" d="M59 645q0 133 51 250.5t138 205.5q189 189 457 189q267 0 455 -189q189 -189 189 -456t-189 -456q-188 -189 -455 -189q-268 0 -457 189q-87 87 -138 204.5t-51 251.5zM188 645q0 -213 152 -365q151 -151 365 -151q213 0 364 151q151 152 151 365q0 212 -151 365 q-151 151 -364 151q-214 0 -365 -151q-152 -152 -152 -365zM454 301v718h332q98 0 170 -70q70 -72 70 -170q0 -100 -70 -170q-68 -68 -165 -71l234 -234h-182l-234 234h-26v-237h-129zM583 667h203q46 0 79 33q32 32 32 79q0 46 -32 78q-32 33 -79 33h-203v-223z" />
<glyph unicode="&#xb0;" horiz-adv-x="573" d="M43 1049q0 49 19 93t51.5 77t76.5 52t94 19q49 0 92.5 -19t76.5 -52t52 -77t19 -93q0 -50 -19 -93.5t-52 -76t-76.5 -51.5t-92.5 -19q-50 0 -94 19t-76.5 51.5t-51.5 76t-19 93.5zM172 1049q0 -23 8.5 -43t23.5 -35t35.5 -24t44.5 -9q22 0 42 8.5t35.5 23.5t24.5 35t9 44 q0 47 -32 79q-33 33 -79 33q-24 0 -44.5 -9t-35.5 -24.5t-23.5 -36t-8.5 -42.5z" />
<glyph unicode="&#xb1;" horiz-adv-x="728" d="M37 824v129h259v259h129v-259h259v-129h-259v-259h-129v259h-259zM40 304v129h647v-129h-647z" />
<glyph unicode="&#xb2;" horiz-adv-x="930" d="M40 403q0 94 26.5 169t75.5 127t119 79.5t158 27.5q151 0 250 -81v81h128l1 -595q0 -45 20 -63.5t65 -18.5h2v-129h-4q-134 2 -188 104q-104 -104 -274 -104q-87 0 -157 27t-119.5 79t-76 127t-26.5 170zM169 403q0 -137 63 -205.5t187 -68.5q121 0 185 68t64 206 t-64 206q-65 68 -185 68q-125 0 -187.5 -69t-62.5 -205z" />
<glyph unicode="&#xb3;" horiz-adv-x="901" d="M13 403q0 94 26.5 169t75.5 127t119 79.5t158 27.5q153 0 250 -82v566h128l1 -1079q0 -45 20 -63.5t65 -18.5h2v-129h-4q-134 2 -188 104q-104 -104 -274 -104q-87 0 -157 27t-119.5 79t-76 127t-26.5 170zM142 403q0 -137 63 -205.5t187 -68.5q121 0 185 68t64 206 t-64 206q-65 68 -185 68q-125 0 -187.5 -69t-62.5 -205z" />
<glyph unicode="&#xb4;" horiz-adv-x="272" d="M29 901l73 259h159l-143 -259h-89z" />
<glyph unicode="&#xb5;" horiz-adv-x="908" d="M46 -484v1290h129v-403q0 -137 63 -205.5t187 -68.5q121 0 185 68t64 206v403h129v-593l1 1q0 -45 19.5 -64t64.5 -19h3v-129h-4q-49 1 -88.5 16t-67.5 42q-19 19 -32 44q-49 -51 -118 -77q-70 -27 -156 -27q-87 0 -157 27q-52 20 -93 53v-564h-129z" />
<glyph unicode="&#xb6;" horiz-adv-x="886" d="M44 890q0 94 26.5 169t75.5 127t119 79.5t158 27.5h398v-1290h-129v1147h-140v-1147h-129v484q-87 0 -157 27t-119.5 79t-76 127t-26.5 170z" />
<glyph unicode="&#xb7;" horiz-adv-x="248" d="M53 420v174h174v-174h-174z" />
<glyph unicode="&#xb8;" horiz-adv-x="541" d="M265 -198h128v-2q0 -13 14 -24q15 -13 39 -13h0.5h1.5q24 0 39 13q9 9 9 27q0 20 -63 21q-59 1 -99.5 16t-40.5 84v107h129v-55q0 -23 17 -23q62 0 122.5 -22t62.5 -126q2 -72 -47 -122q-50 -45 -125 -49h-3.5h-2.5q-68 2 -115 38q-65 48 -66 125v2.5v2.5z" />
<glyph unicode="&#xba;" horiz-adv-x="573" d="M43 1049q0 49 19 93t51.5 77t76.5 52t94 19q49 0 92.5 -19t76.5 -52t52 -77t19 -93q0 -50 -19 -93.5t-52 -76t-76.5 -51.5t-92.5 -19q-50 0 -94 19t-76.5 51.5t-51.5 76t-19 93.5zM172 1049q0 -23 8.5 -43t23.5 -35t35.5 -24t44.5 -9q22 0 42 8.5t35.5 23.5t24.5 35t9 44 q0 47 -32 79q-33 33 -79 33q-24 0 -44.5 -9t-35.5 -24.5t-23.5 -36t-8.5 -42.5z" />
<glyph unicode="&#xbb;" horiz-adv-x="1062" d="M50 274v151l402 253l-402 251v152l644 -403zM415 274v151l402 253l-402 251v152l644 -403z" />
<glyph unicode="&#xbf;" horiz-adv-x="620" d="M34 282q0 153 83 202.5t182 77.5q64 18 117.5 46.5t53.5 109.5q0 64 -45 109q-46 45 -109 45t-108 -45t-45 -109h-129q0 117 82 200q84 82 200 82q118 0 200 -82q83 -84 83 -200q0 -153 -83 -202.5t-182 -77.5q-64 -18 -117.5 -46.5t-53.5 -109.5q0 -64 45 -109 q44 -45 108 -45t109 45t45 109h129q0 -117 -83 -200t-200 -83q-115 0 -200 83q-82 82 -82 200zM226 1116v174h174v-174h-174z" />
<glyph unicode="&#xc0;" d="M22 0l345 1290h134l346 -1290h-134l-63 236h-432l-63 -236h-133zM243 1624h159l73 -259h-89zM253 365h363l-182 676z" />
<glyph unicode="&#xc1;" d="M22 0l345 1290h134l346 -1290h-134l-63 236h-432l-63 -236h-133zM253 365h363l-182 676zM379 1339l73 259h159l-143 -259h-89z" />
<glyph unicode="&#xc2;" d="M22 0l345 1290h134l346 -1290h-134l-63 236h-432l-63 -236h-133zM160 1262l186 228l-1 1h176h2l-1 -1l186 -228h-99l-175 151l-175 -151h-99zM253 365h363l-182 676z" />
<glyph unicode="&#xc3;" d="M22 0l345 1290h134l346 -1290h-134l-63 236h-432l-63 -236h-133zM149 1352q0 39 15.5 73t42.5 60t62 41t74 15q33 0 60 -11.5t49.5 -25t41 -25t32.5 -11.5q26 0 45.5 17.5t19.5 41.5h129q0 -39 -15.5 -73t-42 -59.5t-61.5 -40.5t-75 -15q-33 0 -60.5 11t-50 24.5 t-40.5 25t-32 11.5q-28 0 -46.5 -18t-18.5 -41h-129zM253 365h363l-182 676z" />
<glyph unicode="&#xc4;" d="M22 0l345 1290h134l346 -1290h-134l-63 236h-432l-63 -236h-133zM199 1409q0 66 65 66q66 0 66 -66q0 -65 -66 -65q-65 0 -65 65zM253 365h363l-182 676zM539 1409q0 66 66 66q65 0 65 -66q0 -65 -65 -65q-66 0 -66 65z" />
<glyph unicode="&#xc5;" d="M22 0l345 1290h134l346 -1290h-134l-63 236h-432l-63 -236h-133zM253 365h363l-182 676zM261 1493q0 35 13.5 66.5t37 55t55 37.5t67.5 14q35 0 66.5 -13.5t55 -36.5t37.5 -55t14 -68q0 -37 -14 -68.5t-37.5 -55t-55 -36.5t-66.5 -13q-36 0 -68 14t-55 37.5t-36.5 55 t-13.5 66.5zM390 1493q0 -18 13 -31t31 -13t31 13t13 31t-13 31t-31 13t-31 -13t-13 -31z" />
<glyph unicode="&#xc6;" horiz-adv-x="1277" d="M26 0l428 1290h790v-129h-515v-451h515v-129h-515v-452h515v-129h-644v399h-306l-133 -399h-135zM336 528h264v633h-53z" />
<glyph unicode="&#xc7;" horiz-adv-x="788" d="M40 645q0 177 26.5 299.5t76 199.5t119.5 111.5t157 34.5q124 0 209.5 -72t126.5 -216h-135q-32 80 -79 119t-122 39q-60 0 -107 -27.5t-78.5 -89t-48 -159.5t-16.5 -239q0 -143 16.5 -241.5t48.5 -159t78.5 -87.5t106.5 -27q74 0 121 38.5t80 119.5h135 q-42 -146 -127 -217q-63 -53 -148 -67v-28q0 -23 17 -23q62 0 122.5 -22t62.5 -126q2 -72 -47 -122q-50 -45 -125 -49h-6q-68 2 -115 38q-65 48 -66 125v5h128v-2q0 -13 14 -24q15 -13 39 -13h2q24 0 39 13q9 9 9 27q0 20 -63 21q-59 1 -99.5 16t-40.5 84v81q-46 9 -87 28 q-70 34 -119.5 109.5t-77 199t-27.5 303.5z" />
<glyph unicode="&#xc8;" horiz-adv-x="829" d="M53 0v1290h757v-129h-628v-451h628v-129h-628v-452h628v-129h-757zM298 1643h159l73 -259h-89z" />
<glyph unicode="&#xc9;" horiz-adv-x="829" d="M53 0v1290h757v-129h-628v-451h628v-129h-628v-452h628v-129h-757zM405 1347l73 259h159l-143 -259h-89z" />
<glyph unicode="&#xca;" horiz-adv-x="829" d="M53 0v1290h757v-129h-628v-451h628v-129h-628v-452h628v-129h-757zM150 1371l186 228l-1 1h176h2l-1 -1l186 -228h-99l-175 151l-175 -151h-99z" />
<glyph unicode="&#xcb;" horiz-adv-x="829" d="M53 0v1290h757v-129h-628v-451h628v-129h-628v-452h628v-129h-757zM235 1413q0 66 65 66q66 0 66 -66q0 -65 -66 -65q-65 0 -65 65zM575 1413q0 66 66 66q65 0 65 -66q0 -65 -65 -65q-66 0 -66 65z" />
<glyph unicode="&#xcc;" horiz-adv-x="240" d="M-56 1630h159l73 -259h-89zM54 0v1290h129v-1290h-129z" />
<glyph unicode="&#xcd;" horiz-adv-x="240" d="M54 0v1290h129v-1290h-129zM69 1366l73 259h159l-143 -259h-89z" />
<glyph unicode="&#xce;" horiz-adv-x="240" d="M-153 1347l186 228l-1 1h176h2l-1 -1l186 -228h-99l-175 151l-175 -151h-99zM54 0v1290h129v-1290h-129z" />
<glyph unicode="&#xcf;" horiz-adv-x="240" d="M-156 1426q0 -78 73 -78q75 0 75 78q0 76 -75 76q-73 0 -73 -76zM54 0v1290h129v-1290h-129zM228 1426q0 -78 75 -78q74 0 74 78q0 76 -74 76q-75 0 -75 -76z" />
<glyph unicode="&#xd0;" horiz-adv-x="899" d="M29 581v129h134v580h316q85 0 155 -34t119.5 -110.5t76.5 -199.5t27 -301q0 -181 -27.5 -304.5t-77.5 -199t-119.5 -108.5t-153.5 -33h-316v581h-134zM292 129l187 1q58 0 104.5 27t78.5 87.5t49 158.5t17 242q0 142 -16.5 240t-48.5 159t-78.5 88.5t-105.5 27.5l-187 1 v-451h117v-129h-117v-452z" />
<glyph unicode="&#xd1;" d="M55 0v1290h144q118 -244 239.5 -501.5t244.5 -514.5v1016h129v-1286l2 -4h-131h-12q-121 254 -243.5 513t-243.5 510v-1023h-129zM156 1351q0 39 15.5 73t42.5 60t62 41t74 15q33 0 60 -11.5t49.5 -25t41 -25t32.5 -11.5q26 0 45.5 17.5t19.5 41.5h129q0 -39 -15.5 -73 t-42 -59.5t-61.5 -40.5t-75 -15q-33 0 -60.5 11t-50 24.5t-40.5 25t-32 11.5q-28 0 -46.5 -18t-18.5 -41h-129z" />
<glyph unicode="&#xd2;" horiz-adv-x="839" d="M41 645q0 177 26.5 299.5t76 199.5t119.5 111.5t157 34.5q85 0 155 -34t119.5 -110.5t76.5 -199.5t27 -301q0 -181 -27.5 -304.5t-77.5 -199t-119.5 -108.5t-153.5 -33q-85 0 -155 33.5t-119.5 109t-77 199t-27.5 303.5zM170 645q0 -143 16.5 -241.5t48.5 -159 t78.5 -87.5t106.5 -27q58 0 104.5 26.5t78.5 87.5t49 159.5t17 241.5q0 160 -22 263t-59 162q-59 90 -168 90q-60 0 -107 -27.5t-78.5 -89t-48 -159.5t-16.5 -239zM267 1599h159l73 -259h-89z" />
<glyph unicode="&#xd3;" horiz-adv-x="839" d="M41 645q0 177 26.5 299.5t76 199.5t119.5 111.5t157 34.5q85 0 155 -34t119.5 -110.5t76.5 -199.5t27 -301q0 -181 -27.5 -304.5t-77.5 -199t-119.5 -108.5t-153.5 -33q-85 0 -155 33.5t-119.5 109t-77 199t-27.5 303.5zM170 645q0 -143 16.5 -241.5t48.5 -159 t78.5 -87.5t106.5 -27q58 0 104.5 26.5t78.5 87.5t49 159.5t17 241.5q0 160 -22 263t-59 162q-59 90 -168 90q-60 0 -107 -27.5t-78.5 -89t-48 -159.5t-16.5 -239zM390 1353l73 259h159l-143 -259h-89z" />
<glyph unicode="&#xd4;" horiz-adv-x="839" d="M41 645q0 177 26.5 299.5t76 199.5t119.5 111.5t157 34.5q85 0 155 -34t119.5 -110.5t76.5 -199.5t27 -301q0 -181 -27.5 -304.5t-77.5 -199t-119.5 -108.5t-153.5 -33q-85 0 -155 33.5t-119.5 109t-77 199t-27.5 303.5zM151 1313l186 228l-1 1h176h2l-1 -1l186 -228h-99 l-175 151l-175 -151h-99zM170 645q0 -143 16.5 -241.5t48.5 -159t78.5 -87.5t106.5 -27q58 0 104.5 26.5t78.5 87.5t49 159.5t17 241.5q0 160 -22 263t-59 162q-59 90 -168 90q-60 0 -107 -27.5t-78.5 -89t-48 -159.5t-16.5 -239z" />
<glyph unicode="&#xd5;" horiz-adv-x="839" d="M41 645q0 177 26.5 299.5t76 199.5t119.5 111.5t157 34.5q85 0 155 -34t119.5 -110.5t76.5 -199.5t27 -301q0 -181 -27.5 -304.5t-77.5 -199t-119.5 -108.5t-153.5 -33q-85 0 -155 33.5t-119.5 109t-77 199t-27.5 303.5zM170 645q0 -143 16.5 -241.5t48.5 -159 t78.5 -87.5t106.5 -27q58 0 104.5 26.5t78.5 87.5t49 159.5t17 241.5q0 160 -22 263t-59 162q-59 90 -168 90q-60 0 -107 -27.5t-78.5 -89t-48 -159.5t-16.5 -239zM171 1337q0 39 15.5 73t42.5 60t62 41t74 15q33 0 60 -11.5t49.5 -25t41 -25t32.5 -11.5q26 0 45.5 17.5 t19.5 41.5h129q0 -39 -15.5 -73t-42 -59.5t-61.5 -40.5t-75 -15q-33 0 -60.5 11t-50 24.5t-40.5 25t-32 11.5q-28 0 -46.5 -18t-18.5 -41h-129z" />
<glyph unicode="&#xd6;" horiz-adv-x="839" d="M41 645q0 177 26.5 299.5t76 199.5t119.5 111.5t157 34.5q85 0 155 -34t119.5 -110.5t76.5 -199.5t27 -301q0 -181 -27.5 -304.5t-77.5 -199t-119.5 -108.5t-153.5 -33q-85 0 -155 33.5t-119.5 109t-77 199t-27.5 303.5zM170 645q0 -143 16.5 -241.5t48.5 -159 t78.5 -87.5t106.5 -27q58 0 104.5 26.5t78.5 87.5t49 159.5t17 241.5q0 160 -22 263t-59 162q-59 90 -168 90q-60 0 -107 -27.5t-78.5 -89t-48 -159.5t-16.5 -239zM198 1409q0 66 65 66q66 0 66 -66q0 -65 -66 -65q-65 0 -65 65zM538 1409q0 66 66 66q65 0 65 -66 q0 -65 -65 -65q-66 0 -66 65z" />
<glyph unicode="&#xd7;" horiz-adv-x="667" d="M59 494l183 183l-183 184l91 91l183 -183l184 183l91 -91l-183 -184l183 -183l-91 -91l-184 183l-183 -183z" />
<glyph unicode="&#xd8;" horiz-adv-x="839" d="M-13 0l120 215q-23 56 -39 126q-27 124 -27 304q0 177 26.5 299.5t76 199.5t119.5 111.5t157 34.5q85 0 155 -34q43 -21 79 -59l52 93h147l-121 -217q23 -56 39 -127q27 -123 27 -301q0 -181 -27.5 -304.5t-77.5 -199t-119.5 -108.5t-153.5 -33q-85 0 -155 33 q-44 21 -80 58l-51 -91h-147zM170 645q0 -143 16 -242q3 -18 6 -34l393 705q-59 86 -165 86q-60 0 -107 -27.5t-78.5 -89t-48 -159.5t-16.5 -239zM253 214q26 -38 60 -57q47 -27 107 -27q58 0 104.5 26.5t78.5 87.5t49 159.5t17 241.5q0 160 -22 263l-2 9z" />
<glyph unicode="&#xd9;" horiz-adv-x="807" d="M50 354v936h129v-936q0 -46 18 -87t48.5 -71.5t71.5 -48.5t87 -18t87 18t71.5 48.5t48 71.5t17.5 87v936h129v-936q0 -74 -28.5 -138.5t-77 -112.5t-112.5 -75.5t-135 -27.5q-72 0 -136.5 28t-113 76.5t-76.5 113t-28 136.5zM257 1595h159l73 -259h-89z" />
<glyph unicode="&#xda;" horiz-adv-x="807" d="M50 354v936h129v-936q0 -46 18 -87t48.5 -71.5t71.5 -48.5t87 -18t87 18t71.5 48.5t48 71.5t17.5 87v936h129v-936q0 -74 -28.5 -138.5t-77 -112.5t-112.5 -75.5t-135 -27.5q-72 0 -136.5 28t-113 76.5t-76.5 113t-28 136.5zM361 1369l73 259h159l-143 -259h-89z" />
<glyph unicode="&#xdb;" horiz-adv-x="807" d="M50 354v936h129v-936q0 -46 18 -87t48.5 -71.5t71.5 -48.5t87 -18t87 18t71.5 48.5t48 71.5t17.5 87v936h129v-936q0 -74 -28.5 -138.5t-77 -112.5t-112.5 -75.5t-135 -27.5q-72 0 -136.5 28t-113 76.5t-76.5 113t-28 136.5zM143 1360l186 228l-1 1h176h2l-1 -1l186 -228 h-99l-175 151l-175 -151h-99z" />
<glyph unicode="&#xdc;" horiz-adv-x="807" d="M50 354v936h129v-936q0 -46 18 -87t48.5 -71.5t71.5 -48.5t87 -18t87 18t71.5 48.5t48 71.5t17.5 87v936h129v-936q0 -74 -28.5 -138.5t-77 -112.5t-112.5 -75.5t-135 -27.5q-72 0 -136.5 28t-113 76.5t-76.5 113t-28 136.5zM168 1442q0 66 65 66q66 0 66 -66 q0 -65 -66 -65q-65 0 -65 65zM508 1442q0 66 66 66q65 0 65 -66q0 -65 -65 -65q-66 0 -66 65z" />
<glyph unicode="&#xdd;" horiz-adv-x="784" d="M17 1290h142l233 -494l233 494h142l-310 -659v-631h-130v631zM367 1289l73 259h159l-143 -259h-89z" />
<glyph unicode="&#xde;" horiz-adv-x="813" d="M53 0v1290h129v-290h273q74 0 138.5 -28.5t112.5 -77.5t76 -113t28 -136t-28 -136.5t-76 -113t-113 -77t-138 -28.5h-273v-290h-129zM182 419h273q45 0 86 17.5t72 48.5t49.5 72t18.5 88q0 46 -18.5 87.5t-49.5 72t-72 48.5t-86 18h-273v-452z" />
<glyph unicode="&#xdf;" horiz-adv-x="703" d="M50 0v984q0 63 24 118.5t66 97.5t97.5 66t118.5 24q64 0 120 -24.5t97.5 -66.5t65.5 -97.5t24 -117.5q0 -75 -32.5 -139.5t-97.5 -111.5q33 -29 57 -66.5t40.5 -80t24.5 -89t8 -94.5q0 -83 -24 -156.5t-66 -128.5t-98 -86.5t-119 -31.5v129q37 0 69.5 22.5t56.5 60.5 t38 87.5t14 103.5q0 53 -14 102.5t-38 87.5t-56.5 61t-69.5 23v129q37 0 69.5 14t56.5 38t38 56.5t14 69.5q0 36 -14 68.5t-38.5 56.5t-57 38t-68.5 14t-68.5 -14t-56.5 -38t-38 -56.5t-14 -68.5v-984h-129z" />
<glyph unicode="&#xe0;" horiz-adv-x="850" d="M39 403q0 94 26.5 169t75.5 127t119 79.5t158 27.5q151 0 249 -81v81h129v-806h-129v82q-97 -82 -249 -82q-87 0 -157 27t-119.5 79t-76 127t-26.5 170zM168 403q0 -137 63 -205.5t187 -68.5q121 0 185 68t64 206t-64 206q-65 68 -185 68q-125 0 -187.5 -69t-62.5 -205z M309 1160h159l73 -259h-89z" />
<glyph unicode="&#xe1;" horiz-adv-x="850" d="M39 403q0 94 26.5 169t75.5 127t119 79.5t158 27.5q151 0 249 -81v81h129v-806h-129v82q-97 -82 -249 -82q-87 0 -157 27t-119.5 79t-76 127t-26.5 170zM168 403q0 -137 63 -205.5t187 -68.5q121 0 185 68t64 206t-64 206q-65 68 -185 68q-125 0 -187.5 -69t-62.5 -205z M309 901l73 259h159l-143 -259h-89z" />
<glyph unicode="&#xe2;" horiz-adv-x="850" d="M39 403q0 94 26.5 169t75.5 127t119 79.5t158 27.5q151 0 249 -81v81h129v-806h-129v82q-97 -82 -249 -82q-87 0 -157 27t-119.5 79t-76 127t-26.5 170zM151 901l186 228l-1 1h176h2l-1 -1l186 -228h-99l-175 151l-175 -151h-99zM168 403q0 -137 63 -205.5t187 -68.5 q121 0 185 68t64 206t-64 206q-65 68 -185 68q-125 0 -187.5 -69t-62.5 -205z" />
<glyph unicode="&#xe3;" horiz-adv-x="850" d="M39 403q0 94 26.5 169t75.5 127t119 79.5t158 27.5q151 0 249 -81v81h129v-806h-129v82q-97 -82 -249 -82q-87 0 -157 27t-119.5 79t-76 127t-26.5 170zM139 926q0 39 15.5 73t42.5 60t62 41t74 15q33 0 60 -11.5t49.5 -25t41 -25t32.5 -11.5q26 0 45.5 17.5t19.5 41.5 h129q0 -39 -15.5 -73t-42 -59.5t-61.5 -40.5t-75 -15q-33 0 -60.5 11t-50 24.5t-40.5 25t-32 11.5q-28 0 -46.5 -18t-18.5 -41h-129zM168 403q0 -137 63 -205.5t187 -68.5q121 0 185 68t64 206t-64 206q-65 68 -185 68q-125 0 -187.5 -69t-62.5 -205z" />
<glyph unicode="&#xe4;" horiz-adv-x="850" d="M39 403q0 94 26.5 169t75.5 127t119 79.5t158 27.5q151 0 249 -81v81h129v-806h-129v82q-97 -82 -249 -82q-87 0 -157 27t-119.5 79t-76 127t-26.5 170zM168 403q0 -137 63 -205.5t187 -68.5q121 0 185 68t64 206t-64 206q-65 68 -185 68q-125 0 -187.5 -69t-62.5 -205z M189 980q0 66 65 66q66 0 66 -66q0 -65 -66 -65q-65 0 -65 65zM529 980q0 66 66 66q65 0 65 -66q0 -65 -65 -65q-66 0 -66 65z" />
<glyph unicode="&#xe5;" horiz-adv-x="850" d="M39 403q0 94 26.5 169t75.5 127t119 79.5t158 27.5q151 0 249 -81v81h129v-806h-129v82q-97 -82 -249 -82q-87 0 -157 27t-119.5 79t-76 127t-26.5 170zM168 403q0 -137 63 -205.5t187 -68.5q121 0 185 68t64 206t-64 206q-65 68 -185 68q-125 0 -187.5 -69t-62.5 -205z M252 1117q0 35 13.5 66.5t37 55t55 37.5t67.5 14q35 0 66.5 -13.5t55 -36.5t37.5 -55t14 -68q0 -37 -14 -68.5t-37.5 -55t-55 -36.5t-66.5 -13q-36 0 -68 14t-55 37.5t-36.5 55t-13.5 66.5zM381 1117q0 -18 13 -31t31 -13t31 13t13 31t-13 31t-31 13t-31 -13t-13 -31z" />
<glyph unicode="&#xe6;" horiz-adv-x="1460" d="M43 231q0 67 40 111t118.5 70t194 38t265.5 16q-14 104 -75.5 157.5t-170.5 53.5q-68 0 -116.5 -21t-81.5 -62h-146q39 100 129.5 156t214.5 56q208 0 312 -150q55 75 130 112.5t182 37.5q88 0 158.5 -28t119.5 -80.5t75 -127t26 -167.5q0 -19 -1 -35t-3 -29h-620 q12 -105 75.5 -157.5t169.5 -52.5q27 0 55 4.5t54 14t48.5 25.5t40.5 40h147q-45 -107 -134.5 -160t-210.5 -53q-100 0 -182 36.5t-127 110.5q-98 -147 -315 -147q-56 0 -115 4.5t-112 24.5q-145 54 -145 202zM172 231q0 -36 22 -56.5t57 -30.5t78.5 -12.5t85.5 -2.5 q128 0 189 64q47 51 57 145q-106 -3 -195.5 -10t-155 -19.5t-102 -31.5t-36.5 -46zM794 468h490q-14 103 -76 156t-169 53q-109 0 -171 -53.5t-74 -155.5z" />
<glyph unicode="&#xe7;" horiz-adv-x="791" d="M38 403q0 94 26.5 169t75.5 127t119 79.5t158 27.5q123 0 212 -54t132 -158h-146q-30 42 -81 62.5t-117 20.5q-125 0 -187.5 -69t-62.5 -205q0 -137 63 -205.5t187 -68.5q66 0 117 21t81 63h146q-45 -106 -134 -160q-73 -44 -168 -52v-25q0 -23 17 -23q62 0 122.5 -22 t62.5 -126q2 -72 -47 -122q-50 -45 -125 -49h-6q-68 2 -115 38q-65 48 -66 125v5h128v-2q0 -13 14 -24q15 -13 39 -13h2q24 0 39 13q9 9 9 27q0 20 -63 21q-59 1 -99.5 16t-40.5 84v83q-37 7 -70 20q-70 27 -119.5 79t-76 127t-26.5 170z" />
<glyph unicode="&#xe8;" horiz-adv-x="830" d="M39 403q0 94 26.5 169t75.5 127t119 79.5t158 27.5t158 -27.5t119 -79.5t75 -127t26 -169q0 -34 -3 -64h-621q14 -106 76.5 -158t169.5 -52q66 0 117 21t81 63h146q-45 -106 -133.5 -159.5t-210.5 -53.5q-87 0 -157 27t-119.5 79t-76 127t-26.5 170zM172 468h491 q-14 103 -75.5 156t-169.5 53q-109 0 -170.5 -53t-75.5 -156zM299 1160h159l73 -259h-89z" />
<glyph unicode="&#xe9;" horiz-adv-x="830" d="M39 403q0 94 26.5 169t75.5 127t119 79.5t158 27.5t158 -27.5t119 -79.5t75 -127t26 -169q0 -34 -3 -64h-621q14 -106 76.5 -158t169.5 -52q66 0 117 21t81 63h146q-45 -106 -133.5 -159.5t-210.5 -53.5q-87 0 -157 27t-119.5 79t-76 127t-26.5 170zM172 468h491 q-14 103 -75.5 156t-169.5 53q-109 0 -170.5 -53t-75.5 -156zM299 901l73 259h159l-143 -259h-89z" />
<glyph unicode="&#xea;" horiz-adv-x="830" d="M39 403q0 94 26.5 169t75.5 127t119 79.5t158 27.5t158 -27.5t119 -79.5t75 -127t26 -169q0 -34 -3 -64h-621q14 -106 76.5 -158t169.5 -52q66 0 117 21t81 63h146q-45 -106 -133.5 -159.5t-210.5 -53.5q-87 0 -157 27t-119.5 79t-76 127t-26.5 170zM141 901l186 228 l-1 1h176h2l-1 -1l186 -228h-99l-175 151l-175 -151h-99zM172 468h491q-14 103 -75.5 156t-169.5 53q-109 0 -170.5 -53t-75.5 -156z" />
<glyph unicode="&#xeb;" horiz-adv-x="830" d="M39 403q0 94 26.5 169t75.5 127t119 79.5t158 27.5t158 -27.5t119 -79.5t75 -127t26 -169q0 -34 -3 -64h-621q14 -106 76.5 -158t169.5 -52q66 0 117 21t81 63h146q-45 -106 -133.5 -159.5t-210.5 -53.5q-87 0 -157 27t-119.5 79t-76 127t-26.5 170zM172 468h491 q-14 103 -75.5 156t-169.5 53q-109 0 -170.5 -53t-75.5 -156zM179 980q0 66 65 66q66 0 66 -66q0 -65 -66 -65q-65 0 -65 65zM519 980q0 66 66 66q65 0 65 -66q0 -65 -65 -65q-66 0 -66 65z" />
<glyph unicode="&#xec;" horiz-adv-x="218" d="M-7 1160h159l73 -259h-89zM43 0v806h129v-806h-129z" />
<glyph unicode="&#xed;" horiz-adv-x="218" d="M-7 901l73 259h159l-143 -259h-89zM43 0v806h129v-806h-129z" />
<glyph unicode="&#xee;" horiz-adv-x="218" d="M-165 901l186 228l-1 1h176h2l-1 -1l186 -228h-99l-175 151l-175 -151h-99zM43 0v806h129v-806h-129z" />
<glyph unicode="&#xef;" horiz-adv-x="218" d="M-126 980q0 66 65 66q66 0 66 -66q0 -65 -66 -65q-65 0 -65 65zM43 0v806h129v-806h-129zM214 980q0 66 66 66q65 0 65 -66q0 -65 -65 -65q-66 0 -66 65z" />
<glyph unicode="&#xf0;" horiz-adv-x="829" d="M38 1290h169l169 -200h258v-129h-148l224 -265q98 -107 98 -293q0 -96 -26.5 -170.5t-76 -126.5t-119.5 -79t-156 -27q-88 0 -158 27.5t-119 79.5t-75.5 127t-26.5 169q0 93 26 167.5t74.5 127t119 80.5t159.5 28h18l-131 155h-218v129h109zM180 403q0 -137 63 -205.5 t187 -68.5q121 0 185 68t64 206q0 125 -52 192l-13 15q-30 35 -77 51t-107 16q-125 0 -187.5 -69t-62.5 -205z" />
<glyph unicode="&#xf1;" horiz-adv-x="856" d="M53 0v806h128l1 -81q97 81 249 81q88 0 158.5 -28t119.5 -80t75 -126.5t26 -168.5v-403h-129v403q0 137 -63.5 205.5t-186.5 68.5q-74 0 -122.5 -24.5t-76.5 -63.5t-39 -88t-11 -98v-403h-129zM142 926q0 39 15.5 73t42.5 60t62 41t74 15q33 0 60 -11.5t49.5 -25t41 -25 t32.5 -11.5q26 0 45.5 17.5t19.5 41.5h129q0 -39 -15.5 -73t-42 -59.5t-61.5 -40.5t-75 -15q-33 0 -60.5 11t-50 24.5t-40.5 25t-32 11.5q-28 0 -46.5 -18t-18.5 -41h-129z" />
<glyph unicode="&#xf2;" horiz-adv-x="835" d="M39 403q0 94 26.5 169t75.5 127t119 79.5t158 27.5t158 -27.5t119 -79.5t75 -127t26 -169q0 -95 -26.5 -170t-76 -127t-119.5 -79t-156 -27q-87 0 -157 27t-119.5 79t-76 127t-26.5 170zM168 403q0 -137 63 -205.5t187 -68.5q121 0 185 68t64 206t-64 206q-65 68 -185 68 q-125 0 -187.5 -69t-62.5 -205zM301 1160h159l73 -259h-89z" />
<glyph unicode="&#xf3;" horiz-adv-x="835" d="M39 403q0 94 26.5 169t75.5 127t119 79.5t158 27.5t158 -27.5t119 -79.5t75 -127t26 -169q0 -95 -26.5 -170t-76 -127t-119.5 -79t-156 -27q-87 0 -157 27t-119.5 79t-76 127t-26.5 170zM168 403q0 -137 63 -205.5t187 -68.5q121 0 185 68t64 206t-64 206q-65 68 -185 68 q-125 0 -187.5 -69t-62.5 -205zM301 901l73 259h159l-143 -259h-89z" />
<glyph unicode="&#xf4;" horiz-adv-x="835" d="M39 403q0 94 26.5 169t75.5 127t119 79.5t158 27.5t158 -27.5t119 -79.5t75 -127t26 -169q0 -95 -26.5 -170t-76 -127t-119.5 -79t-156 -27q-87 0 -157 27t-119.5 79t-76 127t-26.5 170zM143 901l186 228l-1 1h176h2l-1 -1l186 -228h-99l-175 151l-175 -151h-99zM168 403 q0 -137 63 -205.5t187 -68.5q121 0 185 68t64 206t-64 206q-65 68 -185 68q-125 0 -187.5 -69t-62.5 -205z" />
<glyph unicode="&#xf5;" horiz-adv-x="835" d="M39 403q0 94 26.5 169t75.5 127t119 79.5t158 27.5t158 -27.5t119 -79.5t75 -127t26 -169q0 -95 -26.5 -170t-76 -127t-119.5 -79t-156 -27q-87 0 -157 27t-119.5 79t-76 127t-26.5 170zM132 926q0 39 15.5 73t42.5 60t62 41t74 15q33 0 60 -11.5t49.5 -25t41 -25 t32.5 -11.5q26 0 45.5 17.5t19.5 41.5h129q0 -39 -15.5 -73t-42 -59.5t-61.5 -40.5t-75 -15q-33 0 -60.5 11t-50 24.5t-40.5 25t-32 11.5q-28 0 -46.5 -18t-18.5 -41h-129zM168 403q0 -137 63 -205.5t187 -68.5q121 0 185 68t64 206t-64 206q-65 68 -185 68 q-125 0 -187.5 -69t-62.5 -205z" />
<glyph unicode="&#xf6;" horiz-adv-x="835" d="M39 403q0 94 26.5 169t75.5 127t119 79.5t158 27.5t158 -27.5t119 -79.5t75 -127t26 -169q0 -95 -26.5 -170t-76 -127t-119.5 -79t-156 -27q-87 0 -157 27t-119.5 79t-76 127t-26.5 170zM168 403q0 -137 63 -205.5t187 -68.5q121 0 185 68t64 206t-64 206q-65 68 -185 68 q-125 0 -187.5 -69t-62.5 -205zM182 980q0 66 65 66q66 0 66 -66q0 -65 -66 -65q-65 0 -65 65zM522 980q0 66 66 66q65 0 65 -66q0 -65 -65 -65q-66 0 -66 65z" />
<glyph unicode="&#xf7;" horiz-adv-x="205" d="M53 484v129h125v-129h-125zM53 742v129h125v-129h-125z" />
<glyph unicode="&#xf8;" horiz-adv-x="835" d="M-15 0l125 144q-27 39 -45 89q-26 75 -26 170q0 94 26.5 169t75.5 127t119 79.5t158 27.5t158 -28q32 -12 59 -30l45 52h143l-108 -125q34 -44 55 -103q26 -75 26 -169q0 -95 -26.5 -170t-76 -127t-119.5 -79t-156 -27q-87 0 -157 27q-41 16 -76 40l-58 -67h-142z M168 403q0 -96 30 -158l351 404q-54 28 -131 28q-125 0 -187.5 -69t-62.5 -205zM270 164q58 -35 148 -35q121 0 185 68t64 206q0 107 -39 172z" />
<glyph unicode="&#xf9;" horiz-adv-x="857" d="M46 403v403h129v-403q0 -137 63 -205.5t187 -68.5q72 0 120 23.5t76.5 62.5t40.5 88t12 100v403h129v-806h-128l-1 82q-97 -82 -249 -82q-87 0 -157 27t-119.5 79t-76 127t-26.5 170zM312 1160h159l73 -259h-89z" />
<glyph unicode="&#xfa;" horiz-adv-x="857" d="M46 403v403h129v-403q0 -137 63 -205.5t187 -68.5q72 0 120 23.5t76.5 62.5t40.5 88t12 100v403h129v-806h-128l-1 82q-97 -82 -249 -82q-87 0 -157 27t-119.5 79t-76 127t-26.5 170zM312 901l73 259h159l-143 -259h-89z" />
<glyph unicode="&#xfb;" horiz-adv-x="857" d="M46 403v403h129v-403q0 -137 63 -205.5t187 -68.5q72 0 120 23.5t76.5 62.5t40.5 88t12 100v403h129v-806h-128l-1 82q-97 -82 -249 -82q-87 0 -157 27t-119.5 79t-76 127t-26.5 170zM154 901l186 228l-1 1h176h2l-1 -1l186 -228h-99l-175 151l-175 -151h-99z" />
<glyph unicode="&#xfc;" horiz-adv-x="857" d="M46 403v403h129v-403q0 -137 63 -205.5t187 -68.5q72 0 120 23.5t76.5 62.5t40.5 88t12 100v403h129v-806h-128l-1 82q-97 -82 -249 -82q-87 0 -157 27t-119.5 79t-76 127t-26.5 170zM193 980q0 66 65 66q66 0 66 -66q0 -65 -66 -65q-65 0 -65 65zM533 980q0 66 66 66 q65 0 65 -66q0 -65 -65 -65q-66 0 -66 65z" />
<glyph unicode="&#xfd;" horiz-adv-x="840" d="M42 806h139l256 -634l256 634h139l-423 -1046q-63 -121 -154 -181.5t-197 -60.5v129q72 0 132.5 43.5t102.5 125.5l75 184zM304 901l73 259h159l-143 -259h-89z" />
<glyph unicode="&#xfe;" horiz-adv-x="811" d="M53 385.5v17.5v19t1 13v855h128v-565q97 81 250 81q88 0 158 -27.5t119 -79.5t75 -127t26 -169q0 -95 -26.5 -170t-76 -127t-119.5 -79t-156 -27q-153 0 -250 82v-565h-129l1 856q-1 5 -1 12.5zM182 388q5 -134 68.5 -196.5t181.5 -62.5q121 0 185 68t64 206 q0 137 -63 205.5t-186 68.5q-241 0 -250 -258v-31z" />
<glyph unicode="&#xff;" horiz-adv-x="840" d="M42 806h139l256 -634l256 634h139l-423 -1046q-63 -121 -154 -181.5t-197 -60.5v129q72 0 132.5 43.5t102.5 125.5l75 184zM184 980q0 66 65 66q66 0 66 -66q0 -65 -66 -65q-65 0 -65 65zM524 980q0 66 66 66q65 0 65 -66q0 -65 -65 -65q-66 0 -66 65z" />
<glyph unicode="&#x152;" horiz-adv-x="1465" d="M48 645q0 177 26.5 299.5t76 199.5t119.5 111.5t157 34.5q153 0 248 -111v111h757v-129h-628v-451h628v-129h-628v-452h628v-129h-757v111q-93 -111 -248 -111q-85 0 -155 33.5t-119.5 109t-77 199t-27.5 303.5zM177 645q0 -143 16.5 -241.5t48.5 -159t78.5 -87.5 t106.5 -27q116 0 177.5 106t70.5 339v139q-5 131 -26 217.5t-54 138.5q-59 90 -168 90q-60 0 -107 -27.5t-78.5 -89t-48 -159.5t-16.5 -239z" />
<glyph unicode="&#x153;" horiz-adv-x="1465" d="M46 403q0 94 26.5 169t75.5 127t119 79.5t158 27.5q103 0 182.5 -37.5t127.5 -112.5q54 72 129 108.5t180 36.5q88 0 158 -27.5t119 -79.5t75 -127t26 -169q0 -34 -3 -64h-620v-6q14 -103 76.5 -153.5t168.5 -50.5q66 0 117 21t81 63h146q-45 -106 -133.5 -159.5 t-210.5 -53.5q-101 0 -184 37.5t-128 112.5q-51 -73 -128.5 -109t-178.5 -36q-87 0 -157 27t-119.5 79t-76 127t-26.5 170zM175 403q0 -137 63 -205.5t187 -68.5q103 0 164.5 49t78.5 152q-3 31 -3 68q0 19 1 37.5t3 35.5q-12 86 -59 138q-65 68 -185 68q-125 0 -187.5 -69 t-62.5 -205zM799 472l1 -9h489q-14 103 -75.5 156t-169.5 53q-107 0 -168 -50.5t-77 -149.5z" />
<glyph unicode="&#x178;" horiz-adv-x="784" d="M17 1290h142l233 -494l233 494h142l-310 -659v-631h-130v631zM170 1419q0 66 65 66q66 0 66 -66q0 -65 -66 -65q-65 0 -65 65zM510 1419q0 66 66 66q65 0 65 -66q0 -65 -65 -65q-66 0 -66 65z" />
<glyph unicode="&#x2c6;" horiz-adv-x="602" d="M27 901l186 228l-1 1h176h2l-1 -1l186 -228h-99l-175 151l-175 -151h-99z" />
<glyph unicode="&#x2dc;" horiz-adv-x="649" d="M39 926q0 39 15.5 73t42.5 60t62 41t74 15q33 0 60 -11.5t49.5 -25t41 -25t32.5 -11.5q26 0 45.5 17.5t19.5 41.5h129q0 -39 -15.5 -73t-42 -59.5t-61.5 -40.5t-75 -15q-33 0 -60.5 11t-50 24.5t-40.5 25t-32 11.5q-28 0 -46.5 -18t-18.5 -41h-129z" />
<glyph unicode="&#x2000;" horiz-adv-x="833" />
<glyph unicode="&#x2001;" horiz-adv-x="1666" />
<glyph unicode="&#x2002;" horiz-adv-x="833" />
<glyph unicode="&#x2003;" horiz-adv-x="1666" />
<glyph unicode="&#x2004;" horiz-adv-x="555" />
<glyph unicode="&#x2005;" horiz-adv-x="416" />
<glyph unicode="&#x2006;" horiz-adv-x="277" />
<glyph unicode="&#x2007;" horiz-adv-x="277" />
<glyph unicode="&#x2008;" horiz-adv-x="208" />
<glyph unicode="&#x2009;" horiz-adv-x="333" />
<glyph unicode="&#x200a;" horiz-adv-x="92" />
<glyph unicode="&#x2010;" horiz-adv-x="754" d="M53 613v129h647v-129h-647z" />
<glyph unicode="&#x2011;" horiz-adv-x="754" d="M53 613v129h647v-129h-647z" />
<glyph unicode="&#x2012;" horiz-adv-x="754" d="M53 613v129h647v-129h-647z" />
<glyph unicode="&#x2013;" horiz-adv-x="848" d="M108 613v129h647v-129h-647z" />
<glyph unicode="&#x2014;" horiz-adv-x="1021" d="M108 613v129h838v-129h-838z" />
<glyph unicode="&#x2018;" horiz-adv-x="252" d="M21 1021q3 90 42.5 152.5t111.5 116.5h57q-77 -116 -82 -269h-129z" />
<glyph unicode="&#x2019;" horiz-adv-x="252" d="M21 1021q78 120 82 269h129q-3 -90 -43 -153t-110 -116h-58z" />
<glyph unicode="&#x201a;" horiz-adv-x="252" d="M21 -139q78 119 82 268h129q-3 -90 -43 -152t-110 -116h-58z" />
<glyph unicode="&#x201c;" horiz-adv-x="487" d="M35 1021q3 90 42.5 152.5t111.5 116.5h57q-77 -116 -82 -269h-129zM242 1021q3 90 42.5 152.5t110.5 116.5h58q-77 -116 -82 -269h-129z" />
<glyph unicode="&#x201d;" horiz-adv-x="486" d="M35 1021q78 120 82 269h129q-3 -90 -43 -153t-110 -116h-58zM242 1021q78 120 82 269h129q-3 -90 -43 -153t-111 -116h-57z" />
<glyph unicode="&#x201e;" horiz-adv-x="486" d="M35 -139q78 119 82 268h129q-3 -90 -43 -152t-110 -116h-58zM242 -139q78 119 82 268h129q-3 -90 -43 -152t-111 -116h-57z" />
<glyph unicode="&#x2022;" horiz-adv-x="420" d="M37 695q0 35 13.5 66.5t37 55t55 37.5t67.5 14q35 0 66.5 -13.5t55 -36.5t37.5 -55t14 -68q0 -37 -14 -68.5t-37.5 -55t-55 -36.5t-66.5 -13q-36 0 -68 14t-55 37.5t-36.5 55t-13.5 66.5z" />
<glyph unicode="&#x2026;" horiz-adv-x="846" d="M53 0v174h174v-174h-174zM335 0v174h174v-174h-174zM617 0v174h174v-174h-174z" />
<glyph unicode="&#x202f;" horiz-adv-x="333" />
<glyph unicode="&#x2039;" horiz-adv-x="681" d="M1 677l644 404v-151l-402 -253l402 -251v-152z" />
<glyph unicode="&#x203a;" horiz-adv-x="698" d="M53 274v152l402 251l-402 253v151l644 -404z" />
<glyph unicode="&#x205f;" horiz-adv-x="416" />
<glyph unicode="&#x20ac;" horiz-adv-x="886" d="M24 484l66 129h49v32q0 17 0.5 41.5t1.5 55.5h-117l66 129h63q28 206 119.5 312.5t244.5 106.5q173 0 268 -137l-67 -149q-31 78 -78.5 117t-122.5 39q-101 0 -156.5 -73.5t-77.5 -215.5h376l-57 -129h-332q-1 -30 -1.5 -54t-0.5 -43v-32h277l-57 -129h-213 q17 -177 75 -265.5t167 -88.5q75 0 122 38.5t80 119.5h135q-41 -143 -126.5 -215.5t-210.5 -72.5q-161 0 -255.5 119.5t-116.5 364.5h-121z" />
<glyph unicode="&#x2122;" horiz-adv-x="1120" d="M14 1221v69h408v-69h-169v-621h-70v621h-169zM458 600v690h77l194 -284l193 284h77v-690h-70v578l-182 -267h-37l-182 267v-578h-70z" />
<glyph unicode="&#x25fc;" horiz-adv-x="805" d="M0 0v805h805v-805h-805z" />
</font>
</defs>
</svg>
